{
  "version": "0.5.0",
  "modules": [
    {
      "plugin": "Core",
      "model": "AudioInterface",
      "pos": [
        690.0,
        0.0
      ],
      "params": [],
      "data": {
        "driver": 5,
        "device": 3,
        "sampleRate": 44100.0,
        "blockSize": 256
      }
    },
    {
      "plugin": "Fundamental",
      "model": "SEQ3",
      "pos": [
        315.0,
        380.0
      ],
      "params": [
        1.211995005607605,
        0.0,
        0.0,
        2.0,
        1.8899999856948853,
        0.0,
        0.0,
        0.0,
        1.6049998998641968,
        2.1449997425079346,
        1.9650000333786011,
        0.0,
        0.0,
        0.0,
        0.0,
        0.0,
        0.0,
        0.0,
        0.0,
        0.0,
        0.0,
        0.0,
        0.10500161349773407,
        0.0,
        0.0,
        0.0,
        0.0,
        0.0,
        0.014999833889305592,
        0.0,
        0.26999852061271667,
        0.0,
        0.0,
        0.0,
        0.15000171959400177,
        0.0
      ],
      "data": {
        "running": true,
        "gates": [
          1,
          1,
          1,
          1,
          1,
          1,
          1,
          1
        ],
        "gateMode": 0
      }
    },
    {
      "plugin": "Fundamental",
      "model": "LFO",
      "pos": [
        165.0,
        380.0
      ],
      "params": [
        0.0,
        0.0,
        -3.2539987564086914,
        0.653999924659729,
        0.64849990606307983,
        0.53100001811981201,
        0.34650009870529175
      ]
    },
    {
      "plugin": "Fundamental",
      "model": "VCO",
      "pos": [
        0.0,
        0.0
      ],
      "params": [
        1.0,
        0.0,
        -54.0,
        0.0,
        0.5,
        0.0,
        0.0
      ]
    },
    {
      "plugin": "Fundamental",
      "model": "ADSR",
      "pos": [
        900.0,
        0.0
      ],
      "params": [
        0.034499995410442352,
        0.93799978494644165,
        1.0,
        0.51649987697601318
      ]
    },
    {
      "plugin": "Fundamental",
      "model": "VCA",
      "pos": [
        300.0,
        0.0
      ],
      "params": [
        0.5,
        0.5
      ]
    },
    {
      "plugin": "Fundamental",
      "model": "VCMixer",
      "pos": [
        540.0,
        0.0
      ],
      "params": [
        1.0,
        0.52650028467178345,
        0.47400000691413879,
        0.0
      ]
    },
    {
      "plugin": "Fundamental",
      "model": "VCO",
      "pos": [
        150.0,
        0.0
      ],
      "params": [
        1.0,
        0.0,
        -30.347984313964844,
        0.0,
        0.5,
        0.0,
        0.0
      ]
    }
  ],
  "wires": [
    {
      "outputModuleId": 3,
      "outputId": 1,
      "inputModuleId": 5,
      "inputId": 4
    },
    {
      "outputModuleId": 7,
      "outputId": 0,
      "inputModuleId": 3,
      "inputId": 3
    },
    {
      "outputModuleId": 7,
      "outputId": 1,
      "inputModuleId": 5,
      "inputId": 2
    },
    {
      "outputModuleId": 3,
      "outputId": 3,
      "inputModuleId": 7,
      "inputId": 2
    },
    {
      "outputModuleId": 1,
      "outputId": 0,
      "inputModuleId": 4,
      "inputId": 4
    },
    {
      "outputModuleId": 4,
      "outputId": 0,
      "inputModuleId": 5,
      "inputId": 1
    },
    {
      "outputModuleId": 6,
      "outputId": 1,
      "inputModuleId": 0,
      "inputId": 1
    },
    {
      "outputModuleId": 5,
      "outputId": 0,
      "inputModuleId": 6,
      "inputId": 1
    },
    {
      "outputModuleId": 6,
      "outputId": 0,
      "inputModuleId": 0,
      "inputId": 0
    }
  ]
}